<svg width="140" height="140" viewBox="0 0 140 140" fill="none" xmlns="http://www.w3.org/2000/svg">
<path fill-rule="evenodd" clip-rule="evenodd" d="M74.4473 21.5877L74.4552 26.2531C74.4552 28.7384 75.2736 29.7074 77.8188 29.7074L91.1739 29.5988C92.2142 29.6561 92.4838 30.2929 92.4736 31.3325L92.6174 40.3897C92.5994 41.5821 92.3715 42.0522 91.2682 42.0842L57.9794 42.5082C56.7919 42.5843 56.3281 42.9327 56.2727 44.0864L56.4178 76.7687C56.456 77.97 57.1484 78.7539 58.4703 78.866L78.452 78.6783C79.7354 78.6184 80.2255 77.9056 80.3071 76.6026L80.3031 68.9532C80.2385 67.8198 79.6948 67.2785 78.4277 67.3057L69.7929 67.3217C68.5849 67.3011 68.1242 66.8303 68.0951 65.5903L68.1216 56.1645C68.0796 54.9509 68.3412 54.2472 69.6066 54.2297L90.4277 54.462C92.0051 54.5522 92.2987 55.1274 92.2887 56.2593L92.2461 89.7935C92.2401 90.7797 92.0011 91.3397 90.898 91.402L76.26 91.3531C74.6229 91.3511 74.5269 91.881 74.5003 93.1576L74.5919 101.213C74.5653 102.563 75.0811 103.167 76.4727 103.238L120.96 103.345C122.248 103.36 122.379 102.852 122.371 101.541L122.396 93.8201C122.385 92.7196 122.362 91.4768 120.611 91.4777L106.277 91.4727C105.049 91.4656 104.638 90.4879 104.646 89.7232C104.666 70.0782 104.685 51.0255 104.704 31.3805C104.769 30.2783 105.09 29.649 106.194 29.6427L119.162 29.6478C121.47 29.6478 121.954 28.4113 121.954 26.2536L121.974 20.8834C121.974 18.6529 121.456 18.1001 119.086 18.1001L77.819 18.1144C74.6638 18.1114 74.4269 18.8907 74.4468 21.5877H74.4473Z" fill="#1B1918" stroke="#1B1918" stroke-width="0.5669"/>
<path fill-rule="evenodd" clip-rule="evenodd" d="M16.2796 29.4415L29.3521 29.5899C30.5847 29.6331 31.2338 30.3152 31.1592 31.6373L31.0667 89.4758C30.9992 91.0177 30.4413 91.7069 29.0433 91.6854L16.3542 91.4619C14.0329 91.5141 13.5326 92.158 13.5225 94.7441L13.5609 100.475C13.6052 102.926 14.2794 103.126 16.4944 103.35L60.132 103.128C62.3691 103.128 62.8519 102.07 62.8519 100.262L62.8469 94.7201C62.7823 92.5194 62.4141 91.7635 59.852 91.6707L46.9085 91.6481C45.4772 91.7014 44.5357 90.8785 44.4346 89.3212L44.4013 31.5597C44.458 29.9758 44.982 29.5527 46.463 29.508L60.0256 29.3522C62.1481 29.3385 62.45 28.6144 62.6114 26.7531L62.566 21.1635C62.5096 19.1725 62.3289 18.2594 59.8916 18.2101L16.0827 18.007C14.3881 17.9043 13.8611 18.938 13.8706 20.4692C13.8989 22.7142 13.9274 24.9593 13.9557 27.2043C13.9607 29.0635 14.6417 29.4063 16.28 29.4415H16.2796Z" fill="#1B1918" stroke="#1B1918" stroke-width="0.5669"/>
<path fill-rule="evenodd" clip-rule="evenodd" d="M8.18885 112.211L8.37514 112.225L8.61796 112.239L8.81873 112.253L9.00501 112.239L9.24784 112.225L9.44827 112.211V121.831L9.1181 121.803L8.81873 121.789L8.5049 121.803L8.18885 121.831V116.993L5.23118 116.923L2.25972 116.993V121.831L1.92952 121.803L1.62987 121.789L1.29968 121.803L1 121.831V112.211L1.18659 112.225L1.44359 112.239L1.62987 112.253L1.81616 112.239L2.07344 112.225L2.25972 112.211V116.247L3.7101 116.29C3.78559 116.29 3.92689 116.29 4.13212 116.29C4.22656 116.29 4.3258 116.29 4.42951 116.29C4.50251 116.29 4.54486 116.29 4.55444 116.29H4.93637C4.98354 116.29 5.03791 116.29 5.10403 116.29C5.16985 116.29 5.21253 116.29 5.23118 116.29H6.76671L8.18885 116.247V112.211ZM61.8772 115.502C61.8772 116.065 61.7217 116.346 61.4102 116.346C61.0897 116.346 60.9291 116.065 60.9291 115.502V112.788C60.9291 112.263 61.0897 112 61.4102 112C61.7404 112 61.8961 112.253 61.8772 112.759V113.125V115.502ZM87.8728 113.899C87.0708 112.989 86.0093 112.535 84.6887 112.535C83.2453 112.535 82.1604 113.045 81.4339 114.068C81.0472 114.602 80.7973 115.23 80.6839 115.952C80.6367 116.243 80.6133 116.576 80.6133 116.951C80.6133 119.379 81.6015 120.837 83.5777 121.325C83.9552 121.419 84.3749 121.466 84.8348 121.466C85.7004 121.466 86.4362 121.306 87.0378 120.987V117.373L87.2241 117.387L87.4671 117.401L87.6675 117.415L87.8538 117.401L88.0967 117.387L88.2971 117.373V121.353C87.0518 121.784 85.7688 122 84.4481 122C82.1652 122 80.6133 121.198 79.7924 119.595C79.4149 118.854 79.2265 117.996 79.2265 117.021C79.2265 114.883 80.118 113.402 81.9008 112.577C82.7311 112.192 83.6792 112 84.7452 112C85.9435 112 86.915 112.16 87.6605 112.478C87.9435 112.6 88.1746 112.713 88.3539 112.816C88.2688 113.013 88.1603 113.374 88.0282 113.899H87.8728ZM14.0334 116.374H16.9223L17.4718 116.332L17.4577 116.444L17.4294 116.585V116.81L17.4577 116.965L17.4718 117.091C17.3963 117.091 17.2974 117.087 17.177 117.077C17.0261 117.04 16.9223 117.021 16.8658 117.021H16.2173H14.0334V121.114L16.9506 121.058C16.9978 121.049 17.0732 121.039 17.177 121.03L17.545 121.001C17.564 120.992 17.6748 120.973 17.8823 120.945L17.8681 121.072L17.8541 121.241L17.8399 121.367C17.8399 121.47 17.8449 121.536 17.8541 121.564L17.8823 121.789H12.7736V112.211H17.7975L17.7692 112.422L17.7548 112.633L17.7692 112.858L17.7975 113.055L17.2338 112.938C17.0543 112.905 16.8211 112.884 16.5285 112.872H15.1182H14.0334V116.374ZM28.5803 121.831L28.1958 121.803L27.8397 121.789L27.453 121.803L27.0826 121.831L26.3845 119.953L25.6014 118.034H22.0119C21.3044 119.787 20.8375 121.053 20.611 121.831L20.3303 121.803L20.0897 121.789L19.8209 121.803L19.5945 121.831L24.0097 112H24.3351L28.5803 121.831ZM23.8279 113.857L22.2786 117.443H25.3916L23.8279 113.857ZM36.9151 114.785L37.8632 112.211L38.1321 112.239L38.3868 112.253L38.5425 112.239L38.8962 112.211L38.6415 112.731L36.8586 116.81L35.5425 119.932C35.2405 120.664 34.9955 121.297 34.8066 121.831L34.6653 121.803L34.5237 121.789L34.3679 121.803L34.2266 121.831L33.6604 120.636L33.0803 119.356L30.5472 113.575C30.4341 113.322 30.2263 112.867 29.9244 112.211L30.1368 112.225L30.4056 112.239L30.6038 112.253L30.8161 112.239L31.2972 112.211C31.3351 112.324 31.4292 112.572 31.5802 112.956L31.8207 113.575L32.7691 116.037L34.5095 120.298H34.6368L35.2595 119.004L35.4294 118.596L36.9151 114.785ZM42.3209 116.374H45.2099L45.7593 116.332L45.7453 116.444L45.7169 116.585V116.81L45.7453 116.965L45.7593 117.091C45.6839 117.091 45.5849 117.087 45.4645 117.077C45.3136 117.04 45.2099 117.021 45.1533 117.021H44.5048H42.3209V121.114L45.2381 121.058C45.2853 121.049 45.3608 121.039 45.4645 121.03L45.8326 121.001C45.8515 120.992 45.9623 120.973 46.1698 120.945L46.1557 121.072L46.1416 121.241L46.1274 121.367C46.1274 121.47 46.1324 121.536 46.1416 121.564L46.1698 121.789H41.0613V112.211H46.085L46.0567 112.422L46.0423 112.633L46.0567 112.858L46.085 113.055L45.5214 112.938C45.3419 112.905 45.1086 112.884 44.816 112.872H43.4057H42.3209V116.374ZM57.2783 121.831H56.8537L56.4291 121.311L56.1179 120.973L49.9998 114.255L49.863 114.25V121.831L49.6507 121.803L49.467 121.789L49.2547 121.803L49.0706 121.831V112.211H49.6225L56.3444 119.454H56.4857V112.211L56.6838 112.239L56.882 112.253L56.9954 112.239L57.1508 112.225L57.2783 112.211V121.831V121.831ZM65.2027 119.932C65.8161 120.898 66.5802 121.381 67.4952 121.381C68.2406 121.381 68.8066 121.044 69.1933 120.368C69.3725 120.05 69.4624 119.707 69.4624 119.342C69.4624 118.76 69.236 118.296 68.7831 117.949C68.5095 117.743 67.9859 117.495 67.2122 117.204C66.5047 116.932 65.9953 116.651 65.6838 116.36C65.2498 115.947 65.0331 115.394 65.0331 114.701C65.0331 113.566 65.5518 112.769 66.5895 112.31C67.0613 112.103 67.5896 112 68.1745 112C69.0423 112 69.717 112.225 70.1982 112.675C70.1509 112.769 70.0235 113.153 69.816 113.828H69.6744C69.3538 113.013 68.769 112.605 67.9198 112.605C67.4197 112.605 66.9977 112.757 66.6533 113.062C66.3088 113.367 66.1367 113.763 66.1367 114.251C66.1367 114.813 66.3727 115.273 66.8442 115.629C67.1179 115.835 67.6131 116.079 68.3303 116.36C69.1037 116.66 69.6368 116.941 69.929 117.204C70.3726 117.588 70.5942 118.118 70.5942 118.793C70.5942 120.097 70.019 121.034 68.8679 121.606C68.3303 121.869 67.7405 122 67.0989 122C66.7122 122 66.3017 121.93 65.8678 121.789C65.3774 121.63 65.0189 121.428 64.7925 121.184C64.8962 120.884 64.9859 120.467 65.0614 119.932H65.2027ZM99.3066 121.831L98.9222 121.803L98.566 121.789L98.1793 121.803L97.809 121.831L97.1107 119.953L96.3277 118.034H92.7383C92.0307 119.787 91.5637 121.053 91.3373 121.831L91.0566 121.803L90.816 121.789L90.5473 121.803L90.3208 121.831L94.7359 112H95.0613L99.3066 121.831ZM94.5542 113.857L93.0048 117.443H96.118L94.5542 113.857ZM102.844 116.599H103.099H103.507C104.616 116.637 105.439 116.374 105.974 115.814C106.302 115.469 106.467 115.034 106.467 114.511C106.467 113.503 105.95 112.914 104.918 112.745C104.691 112.708 104.399 112.694 104.042 112.703H102.844V116.599ZM101.585 112.211H104.585C106 112.211 106.934 112.52 107.387 113.139C107.613 113.446 107.726 113.85 107.726 114.347C107.726 115.772 106.762 116.66 104.83 117.016L108.691 121.829L108.266 121.803L107.868 121.789L107.457 121.803L107.061 121.831L106.17 120.608L104.5 118.456L103.368 117.134H102.844V121.831L102.514 121.803L102.215 121.789L101.884 121.803L101.585 121.831V112.211ZM112.41 121.184L113.059 121.227H113.653H114.203C115.172 121.255 115.955 121.114 116.547 120.805C117.903 120.113 118.58 118.77 118.58 116.775C118.58 115.999 118.5 115.357 118.34 114.851C118.031 113.868 117.323 113.233 116.222 112.942C115.601 112.783 114.924 112.708 114.189 112.717H113.314L112.41 112.759V121.184ZM111.151 112.211H115.34C116.038 112.211 116.585 112.253 116.981 112.338C117.538 112.46 118.028 112.699 118.453 113.052C119.462 113.887 119.967 115.057 119.967 116.564C119.967 118.278 119.373 119.658 118.184 120.708C117.533 121.278 116.66 121.616 115.566 121.719C115.17 121.766 114.618 121.789 113.91 121.789H111.151V112.211ZM124.043 116.374H126.932L127.481 116.332L127.467 116.444L127.439 116.585V116.81L127.467 116.965L127.481 117.091C127.406 117.091 127.307 117.087 127.186 117.077C127.035 117.04 126.932 117.021 126.875 117.021H126.227H124.043V121.114L126.96 121.058C127.007 121.049 127.082 121.039 127.186 121.03L127.554 121.001C127.573 120.992 127.684 120.973 127.892 120.945L127.877 121.072L127.863 121.241L127.849 121.367C127.849 121.47 127.854 121.536 127.863 121.564L127.892 121.789H122.783V112.211H127.807L127.778 112.422L127.764 112.633L127.778 112.858L127.807 113.055L127.243 112.938C127.064 112.905 126.83 112.884 126.538 112.872H125.127H124.043V116.374ZM139 121.831H138.575L138.151 121.311L137.84 120.973L131.722 114.255L131.585 114.25V121.831L131.372 121.803L131.189 121.789L130.976 121.803L130.792 121.831V112.211H131.344L138.066 119.454H138.207V112.211L138.406 112.239L138.604 112.253L138.717 112.239L138.873 112.225L139 112.211V121.831V121.831Z" fill="#1B1918" stroke="#1B1918" stroke-width="0.216"/>
</svg>
